<svg xmlns="http://www.w3.org/2000/svg" viewBox="0 0 50 50"><defs><style>.cls-1{fill:#f7f7f7;}</style></defs><title>3DS</title><g id="BW_LINE" data-name="BW LINE"><g id="MAX"><path class="cls-1" d="M38.66,5.87a5.6,5.6,0,0,1,5.52,5.67V38.46a5.6,5.6,0,0,1-5.52,5.67H11.34a5.6,5.6,0,0,1-5.52-5.67V11.54a5.6,5.6,0,0,1,5.52-5.67H38.66m0-2.13H11.34a7.7,7.7,0,0,0-7.6,7.8V38.46a7.7,7.7,0,0,0,7.6,7.8H38.66a7.7,7.7,0,0,0,7.6-7.8V11.54a7.7,7.7,0,0,0-7.6-7.8Z"/><path class="cls-1" d="M21.07,29.24c1.77,4.76,8.1,2.91,7-1l1.59,1-.43,2.86-4.54,1.24-3.88-.89-.29-2.67Z"/><path class="cls-1" d="M21.07,30.38c2.64,5.1,10.06.52,6.24-3.25l3.38-1.35.6.38.84,1.55.73,2-.71,4.22-1.88,3-4.66.77-4.46-1-2.28-3L19.54,31l.89-.73Z"/><path class="cls-1" d="M21.07,29.24v1.14c-2.65,1.3-.73,7.66,5.38,6.74a6.76,6.76,0,0,0,5.74-5.94,7.87,7.87,0,0,0-1.5-5.4l.48-.85.74-.09c2.69,3.26,3.58,7.07,1.5,10.62a8.9,8.9,0,0,1-4.87,4,10.34,10.34,0,0,1-6.69-.05A10.64,10.64,0,0,1,16,33.67c-.94-2.23-.35-3.43.34-3.83Z"/><path class="cls-1" d="M20.66,26.16c1.71.82,6.92,2.6,11.25-1.32l-7.15-2Z"/><path class="cls-1" d="M21.15,10.27C25.42,8.21,33.32,9.85,34.71,17,36,23.64,29.46,28.73,24,24.73l5.95-6-2.79-6.49Z"/><path class="cls-1" d="M21.29,19.09l.18.15c.76-3.15,5.89-3,6.55,0h.51l.33-1.89-1.05-1.93-3.21-.88L22,14.78l-1.58,1.5.07,1.61Z"/><path class="cls-1" d="M16.59,18.74a1.23,1.23,0,0,1-1.05-1.61c.89-2.64,3.34-7.85,8.82-7.2,7,.84,7.42,5.81,6.92,7.67-.78,2.91-3.6,5.93-10.62,8.56,0-1.71-.06-3.13-.06-3.13.88-.21,7.67-2.15,7.83-5s-7.35-4.44-7.14,1.14Z"/></g></g></svg>