<svg xmlns="http://www.w3.org/2000/svg" viewBox="0 0 50 50"><defs><style>.cls-1{fill:#f7f7f7;}</style></defs><title>AE</title><g id="BW_LINE" data-name="BW LINE"><g id="AE"><g id="PS"><path class="cls-1" d="M38.94,6.28a5.6,5.6,0,0,1,5.53,5.66V38.87a5.6,5.6,0,0,1-5.53,5.67H11.62A5.6,5.6,0,0,1,6.1,38.87V11.94a5.6,5.6,0,0,1,5.52-5.66H38.94m0-2.13H11.62A7.7,7.7,0,0,0,4,11.94V38.87a7.7,7.7,0,0,0,7.6,7.8H38.94a7.7,7.7,0,0,0,7.6-7.8V11.94a7.7,7.7,0,0,0-7.6-7.79Z"/></g><path class="cls-1" d="M20.59,14.19h-3.8a.09.09,0,0,0-.1.09l-.09,1.27v0L11.54,33.51a.1.1,0,0,0,.1.13H14.4a.1.1,0,0,0,.1-.08l1.41-5.32a.1.1,0,0,1,.1-.08h5.45a.12.12,0,0,1,.1.07l1.6,5.34a.1.1,0,0,0,.09.07h3a.1.1,0,0,0,.1-.13L20.69,14.26a.12.12,0,0,0-.1-.07ZM16.67,25.31l2.06-8.43,2.08,8.43Z"/><path class="cls-1" d="M33.27,19a6.48,6.48,0,0,0-2.07.37c-3.14,1.13-4.43,5.21-3.94,8.69.45,3.24,2.56,6,6.28,6a10.48,10.48,0,0,0,3.78-.8.08.08,0,0,0,0-.07V30.62a.08.08,0,0,0-.08-.08h0a10.28,10.28,0,0,1-3.08.58c-1.79,0-3.65-.78-3.81-4,.9,0,2.74,0,4.41,0a14.36,14.36,0,0,0,3.37-.21,7.75,7.75,0,0,0-.38-5.06,5.12,5.12,0,0,0-4.5-2.9Zm-2.85,5.71c.23-2.2,1.44-3.11,2.6-3.11a2.45,2.45,0,0,1,2.28,3.11Z"/></g></g></svg>