<svg xmlns="http://www.w3.org/2000/svg" viewBox="0 0 50 50"><defs><style>.cls-1{fill:#f7f7f7;}</style></defs><title>AI</title><g id="BW_LINE" data-name="BW LINE"><g id="AI"><path class="cls-1" d="M38.66,5.83a5.6,5.6,0,0,1,5.52,5.67V38.43a5.59,5.59,0,0,1-5.52,5.66H11.34a5.59,5.59,0,0,1-5.52-5.66V11.5a5.6,5.6,0,0,1,5.52-5.67H38.66m0-2.13H11.34a7.7,7.7,0,0,0-7.6,7.8V38.43a7.7,7.7,0,0,0,7.6,7.79H38.66a7.7,7.7,0,0,0,7.6-7.79V11.5a7.7,7.7,0,0,0-7.6-7.8Z"/><path class="cls-1" d="M23.1,13.84H19.3a.11.11,0,0,0-.1.1l-.09,1.26v0l-5,17.94a.1.1,0,0,0,.1.13h2.76a.1.1,0,0,0,.1-.07l1.41-5.33a.09.09,0,0,1,.09-.08H24a.1.1,0,0,1,.09.07l1.6,5.34a.1.1,0,0,0,.1.07h3a.1.1,0,0,0,.1-.13L23.2,13.91a.1.1,0,0,0-.1-.07ZM19.19,25l2-8.43L23.33,25Z"/><path class="cls-1" d="M34.58,19h-3a.09.09,0,0,0-.1.1V33.19a.1.1,0,0,0,.1.1h3a.11.11,0,0,0,.11-.1V19.07a.1.1,0,0,0-.11-.1Z"/><path class="cls-1" d="M33.1,13.3A1.87,1.87,0,1,0,35,15.17,1.87,1.87,0,0,0,33.1,13.3Z"/></g></g></svg>