<svg xmlns="http://www.w3.org/2000/svg" viewBox="0 0 50 50"><defs><style>.cls-1{fill:#f7f7f7;}</style></defs><title>ID</title><g id="BW_LINE" data-name="BW LINE"><g id="ID"><path class="cls-1" d="M39,6.12a5.6,5.6,0,0,1,5.52,5.67V38.72A5.6,5.6,0,0,1,39,44.38H11.62A5.6,5.6,0,0,1,6.1,38.72V11.79a5.6,5.6,0,0,1,5.52-5.67H39M39,4H11.62A7.7,7.7,0,0,0,4,11.79V38.72a7.69,7.69,0,0,0,7.59,7.79H39a7.7,7.7,0,0,0,7.6-7.79V11.79A7.71,7.71,0,0,0,39,4Z"/><rect class="cls-1" x="15.83" y="15.23" width="3.23" height="19.72"/><path class="cls-1" d="M30.45,15.23v5.12a8.19,8.19,0,0,0-4.78.79c-3.6,1.89-5.3,9.66-.31,13.22,3.21,1.94,7,.27,8.49-.17v-19ZM25.59,28.59c-.05-.89,0-1.9,0-1.9A4,4,0,0,1,30.45,23v9.21A3.8,3.8,0,0,1,25.59,28.59Z"/></g></g></svg>