<svg xmlns="http://www.w3.org/2000/svg" viewBox="0 0 50 50"><defs><style>.cls-1{fill:#f7f7f7;}</style></defs><title>MAYA</title><g id="BW_LINE" data-name="BW LINE"><g id="MAYA"><path class="cls-1" d="M38.66,5.87a5.6,5.6,0,0,1,5.52,5.67V38.46a5.6,5.6,0,0,1-5.52,5.67H11.34a5.6,5.6,0,0,1-5.52-5.67V11.54a5.6,5.6,0,0,1,5.52-5.67H38.66m0-2.13H11.34a7.7,7.7,0,0,0-7.6,7.8V38.46a7.7,7.7,0,0,0,7.6,7.8H38.66a7.7,7.7,0,0,0,7.6-7.8V11.54a7.7,7.7,0,0,0-7.6-7.8Z"/><polyline class="cls-1" points="39.11 12.42 31.77 26.04 31.67 36.85 33.23 38.51 39.11 38.42 39.11 12.42"/><polygon class="cls-1" points="10.81 38.42 17.55 25 10.81 12.47 10.81 38.42"/><polygon class="cls-1" points="25.03 25.77 30.67 12.42 39.11 12.42 27.95 33.13 25.03 25.77"/><path class="cls-1" d="M32.3,25.06l.93,13.44s4.88-15.38,5.88-26.08Z"/><polygon class="cls-1" points="10.81 12.47 19.41 11.58 27.95 33.13 22.07 33.18 17.55 25 10.81 12.47"/><path class="cls-1" d="M10.81,38.42c1.31,0,5.63,0,7.44-1.57L17.55,25Z"/></g></g></svg>