<svg xmlns="http://www.w3.org/2000/svg" viewBox="0 0 50 50"><defs><style>.cls-1{fill:#f7f7f7;}</style></defs><title>PR</title><g id="BW_LINE" data-name="BW LINE"><g id="PR"><g id="PS"><path class="cls-1" d="M38.66,5.87a5.6,5.6,0,0,1,5.52,5.67V38.46a5.6,5.6,0,0,1-5.52,5.67H11.34a5.6,5.6,0,0,1-5.52-5.67V11.54a5.6,5.6,0,0,1,5.52-5.67H38.66m0-2.13H11.34a7.7,7.7,0,0,0-7.6,7.8V38.46a7.7,7.7,0,0,0,7.6,7.8H38.66a7.7,7.7,0,0,0,7.6-7.8V11.54a7.7,7.7,0,0,0-7.6-7.8Z"/></g><path class="cls-1" d="M18.28,13.68c-1.25,0-2.6.08-4.05.12A.23.23,0,0,0,14,14v19.2h3.12v-7h.75c.69,0,1.76,0,2.77-.12,4.38-.45,6.43-5.72,4.48-9.39-1.37-2.58-3.76-3-6.83-3Zm-.17,9.72-.85,0a.09.09,0,0,1-.1-.09V16.66a.1.1,0,0,1,.1-.1c.45,0,1.06-.08,1.7-.08a3.27,3.27,0,0,1,3.21,1.61,4.14,4.14,0,0,1-.1,3.87c-.43.57-1.08,1.44-4,1.44Z"/><path class="cls-1" d="M35,18.65h0a18.81,18.81,0,0,0-6.57,1.22.22.22,0,0,0-.13.23,13.41,13.41,0,0,1,.13,2.84c0,1,0,9.09,0,10.25a.13.13,0,0,0,.14.13h2.9a.13.13,0,0,0,.13-.13V21.92a11.92,11.92,0,0,1,2.81-.37l.56,0h0a.14.14,0,0,0,.13-.14V18.79a.13.13,0,0,0-.13-.14Z"/></g></g></svg>