<svg xmlns="http://www.w3.org/2000/svg" viewBox="0 0 50 50"><defs><style>.cls-1{fill:#f7f7f7;}</style></defs><title>PS</title><g id="BW_LINE" data-name="BW LINE"><g id="PS"><g id="PS-2" data-name="PS"><path class="cls-1" d="M38.66,5.87a5.6,5.6,0,0,1,5.52,5.67V38.46a5.6,5.6,0,0,1-5.52,5.67H11.34a5.6,5.6,0,0,1-5.52-5.67V11.54a5.6,5.6,0,0,1,5.52-5.67H38.66m0-2.13H11.34a7.7,7.7,0,0,0-7.6,7.8V38.46a7.7,7.7,0,0,0,7.6,7.8H38.66a7.7,7.7,0,0,0,7.6-7.8V11.54a7.7,7.7,0,0,0-7.6-7.8Z"/></g><path class="cls-1" d="M18.36,13.68c-1.24,0-2.6.08-4,.12a.23.23,0,0,0-.23.23v19.2h3.11v-7h.75c.69,0,1.76,0,2.77-.12,4.38-.45,6.44-5.72,4.48-9.39-1.37-2.58-3.75-3-6.83-3Zm-.17,9.72-.85,0a.09.09,0,0,1-.09-.09V16.66a.09.09,0,0,1,.09-.1c.46,0,1.06-.08,1.71-.08a3.29,3.29,0,0,1,3.21,1.61,4.17,4.17,0,0,1-.1,3.87c-.44.57-1.08,1.44-4,1.44Z"/><path class="cls-1" d="M32.73,18.6a5.78,5.78,0,0,0-4,1.34c-.76.79-2.53,3.78.37,6.07,2.62,2.07,4.09,1.84,4.15,3.44,0,.95-.84,1.33-1.91,1.33a5.85,5.85,0,0,1-1.69-.27,8,8,0,0,1-1.79-.76.19.19,0,0,0-.12,0,.21.21,0,0,0-.21.22c0,1.23,0,2.29,0,2.65a.22.22,0,0,0,.13.2,9,9,0,0,0,3.61.76,8.42,8.42,0,0,0,2-.23,4.27,4.27,0,0,0,3.17-4.68c-.25-2.37-2.64-3.68-4.25-4.32-2-.78-2.31-3,.48-3l.52,0a4.73,4.73,0,0,1,2.28.74.17.17,0,0,0,.12,0,.22.22,0,0,0,.22-.22l0-2.51a.21.21,0,0,0-.14-.19,7.71,7.71,0,0,0-2.91-.57Z"/></g></g></svg>