<svg xmlns="http://www.w3.org/2000/svg" viewBox="0 0 50 50"><defs><style>.cls-1{fill:#f7f7f7;}</style></defs><title>SBP</title><g id="BW_LINE" data-name="BW LINE"><g id="SUBSTANCE"><path class="cls-1" d="M38.68,6a5.54,5.54,0,0,1,5.53,5.53V37.81a5.54,5.54,0,0,1-5.53,5.53H11.32a5.54,5.54,0,0,1-5.53-5.53V11.53A5.54,5.54,0,0,1,11.32,6H38.68m0-2.08H11.32a7.61,7.61,0,0,0-7.61,7.61V37.81a7.61,7.61,0,0,0,7.61,7.6H38.68a7.61,7.61,0,0,0,7.61-7.6V11.53a7.61,7.61,0,0,0-7.61-7.61Z"/><path class="cls-1" d="M24.15,15.1a11.41,11.41,0,0,0,0,22.81A11.27,11.27,0,0,0,35.28,26.5,11.26,11.26,0,0,0,24.15,15.1Zm0,16.23,3.05-1.92L16.82,26V22.1l7.32-4.45,7.33,4.45v4l-2.55-.89v-.57l-4.73-2.9L21.1,23.51l10.37,3.43v4l-7.32,4.4-7.33-4.46v-4l2.59.85,0,.7,4.77,2.87Z"/><path class="cls-1" d="M37.31,32.06A2.93,2.93,0,1,0,40.23,35a2.93,2.93,0,0,0-2.92-2.93Z"/><path class="cls-1" d="M12.78,33.71A1.32,1.32,0,1,0,14.1,35a1.32,1.32,0,0,0-1.32-1.32Z"/><path class="cls-1" d="M24.15,9.54A1.84,1.84,0,1,0,26,11.37a1.83,1.83,0,0,0-1.83-1.83Z"/></g></g></svg>