<svg xmlns="http://www.w3.org/2000/svg" viewBox="0 0 50 50"><defs><style>.cls-1{fill:#f7f7f7;}</style></defs><title>TOPO</title><g id="BW_LINE" data-name="BW LINE"><g id="TOPOGUN"><path class="cls-1" d="M38.66,5.87a5.6,5.6,0,0,1,5.52,5.67V38.46a5.6,5.6,0,0,1-5.52,5.67H11.34a5.6,5.6,0,0,1-5.52-5.67V11.54a5.6,5.6,0,0,1,5.52-5.67H38.66m0-2.13H11.34a7.7,7.7,0,0,0-7.6,7.8V38.46a7.7,7.7,0,0,0,7.6,7.8H38.66a7.7,7.7,0,0,0,7.6-7.8V11.54a7.7,7.7,0,0,0-7.6-7.8Z"/><path class="cls-1" d="M37.46,13.22H11.81V17h3.88V32l3.59,1.09V16.89h2.5l0,16.87,15.71,4.75V29.7l-4.28-1.35v5.37L25.49,31.4V16.92h12v-3.7Z"/></g></g></svg>