<svg xmlns="http://www.w3.org/2000/svg" viewBox="0 0 50 50"><defs><style>.cls-1{fill:#f7f7f7;}</style></defs><title>UNREAL</title><g id="BW_LINE" data-name="BW LINE"><g id="UNREAL"><path class="cls-1" d="M38.83,6.05a5.6,5.6,0,0,1,5.52,5.67V38.64a5.6,5.6,0,0,1-5.52,5.67H11.5A5.6,5.6,0,0,1,6,38.64V11.72A5.6,5.6,0,0,1,11.5,6.05H38.83m0-2.13H11.5a7.7,7.7,0,0,0-7.59,7.8V38.64a7.7,7.7,0,0,0,7.59,7.8H38.83a7.71,7.71,0,0,0,7.6-7.8V11.72a7.71,7.71,0,0,0-7.6-7.8Z"/><path class="cls-1" d="M10.42,29C10,20.63,20.35,13.37,24.13,12.73c-4.51,3.55-2.09,6.9-.93,5.72V31.16c.35,1,1.69,2.46,4.77-.26V20.42a3.31,3.31,0,0,0-1.57-2.6,3.66,3.66,0,0,1,2.43.59A14.61,14.61,0,0,1,36.58,14,46,46,0,0,0,33,19c-.07,1.6-.07,11.12,0,12.18,1.06,1.13,3.17.22,5.46-2.47-3.32,6.66-7.26,8.48-7.26,8.48-1.51-1.36-2.66-2.39-2.74-2.42L25.53,38c-4.37-.71-7.54-2-9.39-4.75,1.52.32,2.09,0,2.09-1.21V22.61c0-1.18-1.37-1.53-2.54-.57A20.39,20.39,0,0,0,10.42,29Z"/></g></g></svg>