<svg xmlns="http://www.w3.org/2000/svg" viewBox="0 0 50 50"><defs><style>.cls-1{fill:#f7f7f7;}</style></defs><title>XD</title><g id="BW_LINE" data-name="BW LINE"><g id="XD"><g id="PS"><path class="cls-1" d="M38.66,6.31A5.59,5.59,0,0,1,44.18,12V38.9a5.59,5.59,0,0,1-5.52,5.66H11.34A5.59,5.59,0,0,1,5.82,38.9V12a5.59,5.59,0,0,1,5.52-5.66H38.66m0-2.13H11.34A7.7,7.7,0,0,0,3.74,12V38.9a7.71,7.71,0,0,0,7.6,7.8H38.66a7.71,7.71,0,0,0,7.6-7.8V12a7.7,7.7,0,0,0-7.6-7.79Z"/></g><polygon class="cls-1" points="25.51 14.69 22.14 14.69 18.74 21.97 15.31 14.69 11.85 14.69 16.64 24.26 11.5 33.83 15.16 33.83 18.48 26.33 22.11 33.83 25.73 33.83 20.59 23.96 25.51 14.69 25.51 14.69"/><path class="cls-1" d="M37.68,14.69H34.39v5c-.29,0-.71-.06-1.22-.06a7.21,7.21,0,0,0-3.41.82c-3.48,1.84-5.13,9.36-.3,12.81a6.39,6.39,0,0,0,3.37.89,15.66,15.66,0,0,0,4.85-1.06V14.69ZM33.33,31.36a3.78,3.78,0,0,1-3.64-3.73c-.05-.86,0-1.84,0-1.84a3.8,3.8,0,0,1,3.79-3.62,4.92,4.92,0,0,1,.91.09v8.91a3,3,0,0,1-1.06.19Z"/></g></g></svg>