<svg xmlns="http://www.w3.org/2000/svg" viewBox="0 0 50 50"><defs><style>.cls-1{fill:#f7f7f7;}</style></defs><title>ZBRUSH</title><g id="BW_LINE" data-name="BW LINE"><g id="ZBRUSH"><path class="cls-1" d="M38.68,6.61a5.54,5.54,0,0,1,5.53,5.53V38.42A5.54,5.54,0,0,1,38.68,44H11.32a5.54,5.54,0,0,1-5.53-5.53V12.14a5.54,5.54,0,0,1,5.53-5.53H38.68m0-2.08H11.32a7.61,7.61,0,0,0-7.61,7.61V38.42A7.61,7.61,0,0,0,11.32,46H38.68a7.61,7.61,0,0,0,7.61-7.6V12.14a7.61,7.61,0,0,0-7.61-7.61Z"/><path class="cls-1" d="M22.56,17.23c-3.32,0-7.14,1.53-10.14,7a.2.2,0,0,0,.18.29h0A10.06,10.06,0,0,0,16.19,23a.36.36,0,0,0,.15-.34c-.16-1.81,2.32-4.06,4.26-4.06h.21c1.92.18,4.43,1.8,6.33,3.17a52.21,52.21,0,0,0-5.27,5.24,24.67,24.67,0,0,0-8.65,4.19c-2.6,2-4.23,4.11-4.14,5.22,0,.6.54.73,1,.73a3.79,3.79,0,0,0,.49,0c2.55-.32,9.28-4.31,11.36-7.64a22.61,22.61,0,0,1,2.67-.15c3.56,0,7.62.8,10.33,3.48,0,1.68-.31,2.29.56,3.06s3,2.55,4.14,2.55a1,1,0,0,0,.24,0c1.05-.32-4.43-11.62-15.57-11.62h-.61a44.13,44.13,0,0,1,4.22-4.59,7.2,7.2,0,0,0,3,.84h.28c4.29-.42,5-4.61,3.3-5.17a1.59,1.59,0,0,0-.55-.08A8,8,0,0,0,30,19.58a14.44,14.44,0,0,0-7.46-2.35Zm10.08,3.15A5,5,0,0,1,30.69,20a7.78,7.78,0,0,1,3.42-1.6.87.87,0,0,1,.85.48c.21.5-.67,1.55-2.32,1.55ZM11,36.2a.87.87,0,0,1-.89-.45c-.68-1.7,5.82-5.46,10.23-6.09a19.44,19.44,0,0,1-8,6.23A3.53,3.53,0,0,1,11,36.2Z"/><path class="cls-1" d="M27.39,11.67a2.33,2.33,0,0,0-1.51.82c-2,2-.09,3.15.54,3.38a3.91,3.91,0,0,0,1.42.29,3.29,3.29,0,0,0,1.35-.29c1.65-.71.14-2.69-.79-3.7a1.37,1.37,0,0,0-1-.5Z"/></g></g></svg>